<svg id="Layer_1" data-name="Layer 1" xmlns="http://www.w3.org/2000/svg" width="305" height="435" viewBox="0 0 305 435"><title>DoDTA-SpriteSheet</title><circle cx="41.16" cy="43.21" r="12.99" style="fill:#fff"/><path d="M70.68,18.27H76.2c4.14,0,7.12,2.48,7.12,6.56s-3,6.59-7.1,6.59H70.68ZM76.2,28.46a3.49,3.49,0,0,0,3.65-3.63,3.37,3.37,0,0,0-3.63-3.61H74.07v7.24Z" style="fill:#212f64"/><path d="M85,18.27h9.64v2.85H88.4v2.19h6.11v2.88H88.4v2.37h6.25v2.86H85Z" style="fill:#212f64"/><path d="M95.22,18.27h3.84l3.24,9.48,3.25-9.48h3.84l-5,13.15h-4.26Z" style="fill:#212f64"/><path d="M116.33,18.05a6.68,6.68,0,0,1,7,6.8,7,7,0,1,1-7-6.8Zm0,3a3.54,3.54,0,0,0-3.59,3.8,3.59,3.59,0,1,0,7.16,0A3.54,3.54,0,0,0,116.33,21.05Z" style="fill:#212f64"/><path d="M125.06,18.27h6.58a4.24,4.24,0,0,1,4.57,4.37A4.21,4.21,0,0,1,131.64,27h-3.19v4.46h-3.39Zm6.13,2.85h-2.74v3h2.74a1.45,1.45,0,0,0,1.57-1.46A1.47,1.47,0,0,0,131.19,21.12Z" style="fill:#212f64"/><path d="M138.58,27a5.9,5.9,0,0,0,4.19,1.73c1.17,0,1.88-.49,1.88-1.12s-.85-1-2.25-1.34c-2.17-.43-5.21-1-5.21-4.1,0-2.21,1.88-4.12,5.25-4.12a8,8,0,0,1,5.34,1.83l-1.85,2.43A6.1,6.1,0,0,0,142.22,21c-1.12,0-1.56.45-1.56,1s.81.93,2.27,1.21c2.17.45,5.17,1.08,5.17,4.06,0,2.64-1.95,4.39-5.48,4.39a8,8,0,0,1-5.84-2.09Z" style="fill:#212f64"/><path d="M70.68,36.28H76.2c4.14,0,7.12,2.49,7.12,6.57s-3,6.58-7.1,6.58H70.68Zm5.52,10.2a3.49,3.49,0,0,0,3.65-3.63,3.37,3.37,0,0,0-3.63-3.61H74.07v7.24Z" style="fill:#212f64"/><path d="M92.8,47.44H87.34l-.67,2H83l5-13.15h4.26l5,13.15H93.47Zm-4.58-2.86h3.69l-1.85-5.34Z" style="fill:#212f64"/><path d="M100.36,44.13l-5-7.85H99.2l2.86,4.85,2.82-4.85h3.84l-5,7.85v5.3h-3.39Z" style="fill:#212f64"/><path d="M110.14,45a5.94,5.94,0,0,0,4.2,1.73c1.16,0,1.87-.49,1.87-1.12s-.85-1-2.25-1.34c-2.17-.44-5.2-1-5.2-4.1,0-2.21,1.87-4.12,5.24-4.12a8,8,0,0,1,5.34,1.83l-1.85,2.43A6.08,6.08,0,0,0,113.78,39c-1.12,0-1.55.45-1.55,1s.81.93,2.26,1.2c2.17.46,5.17,1.09,5.17,4.06,0,2.65-2,4.4-5.48,4.4a8.06,8.06,0,0,1-5.84-2.09Z" style="fill:#212f64"/><path d="M73.62,57.26H69.93v-3H80.68v3H77V67.45H73.62Z" style="fill:#53c4cc"/><path d="M89.49,65.46H84l-.67,2H79.67l5-13.15h4.26l5,13.15H90.16ZM84.91,62.6H88.6l-1.85-5.34Z" style="fill:#53c4cc"/><path d="M106.34,58.58,103,67.45h-1.5L98.2,58.58v8.87H94.81V54.3h4.71l2.74,7.45L105,54.3h4.71V67.45h-3.39Z" style="fill:#53c4cc"/><path d="M112.09,54.3h6.58a4.36,4.36,0,1,1,0,8.7h-3.19v4.45h-3.39Zm6.13,2.86h-2.74v3h2.74a1.45,1.45,0,0,0,1.58-1.46A1.47,1.47,0,0,0,118.22,57.16Z" style="fill:#53c4cc"/><path d="M131.76,65.46H126.3l-.67,2h-3.69l5-13.15h4.26l5,13.15h-3.69Zm-4.57-2.86h3.68L129,57.26Z" style="fill:#53c4cc"/><path d="M142.12,54.3h7.45c2.61,0,3.85,1.7,3.85,3.35a3,3,0,0,1-2.25,3,3.15,3.15,0,0,1,2.5,3.21c0,1.92-1.28,3.57-3.86,3.57h-7.69Zm6.69,5.09A1.11,1.11,0,0,0,150,58.25a1.1,1.1,0,0,0-1.16-1.13h-3.3v2.27Zm.11,5.24a1.17,1.17,0,0,0,1.3-1.2,1.21,1.21,0,0,0-1.3-1.24h-3.41v2.44Z" style="fill:#53c4cc"/><path d="M163.94,65.46h-5.46l-.67,2h-3.69l4.95-13.15h4.26l5,13.15h-3.69Zm-4.57-2.86h3.68l-1.85-5.34Z" style="fill:#53c4cc"/><path d="M171.51,62.15l-5-7.85h3.82l2.86,4.85L176,54.3h3.85l-5,7.85v5.3h-3.39Z" style="fill:#53c4cc"/><path d="M41.63,31.18a20.68,20.68,0,0,1,1.56-1.41,8.64,8.64,0,0,0-3.47,2.54,3.21,3.21,0,0,0,.07-.76,6.76,6.76,0,0,0-1.27,2.16,9.87,9.87,0,0,1,1.67-.33A6.56,6.56,0,0,1,41.63,31.18Z" style="fill:#f5d131"/><path d="M45.65,32.22a1.2,1.2,0,0,0-.15-.45,5.44,5.44,0,0,0-1.25,1.47c-.19.25-.36.51-.53.78a9.69,9.69,0,0,1,2.05,1.12A28.63,28.63,0,0,0,45.65,32.22Z" style="fill:#f5d131"/><path d="M56.3,64.68l2-2,.23-.22-6.46,0Z" style="fill:#53c4cc"/><path d="M23.05,62.64l2,2,4.32-2.33q-3.28,0-6.58,0Z" style="fill:#53c4cc"/><path d="M40.05,33.77a.93.93,0,0,1,.51-.35c-.38.1-.28,1.95-.27,2.28a9.08,9.08,0,0,0,.5,2.58l.22-.72a2.79,2.79,0,0,0,.39.88,2.11,2.11,0,0,0,.77.77c-.13-.07-.22-.62-.26-.76a5.5,5.5,0,0,1-.15-.81,3.31,3.31,0,0,1,.07-1.4,1.89,1.89,0,0,0,.41,1.17,10,10,0,0,1,.23-1.8,3.21,3.21,0,0,1,.86-1.56,2,2,0,0,0-.22,1A11.18,11.18,0,0,1,43.72,34a9.62,9.62,0,0,0-3-.68l-.49,0C40.14,33.51,40.09,33.64,40.05,33.77Z" style="fill:#212f64"/><path d="M37.48,34.08a16.15,16.15,0,0,0,.62,1.77,7,7,0,0,1,.42-2.14C38.16,33.82,37.82,33.94,37.48,34.08Z" style="fill:#212f64"/><path d="M26.08,59.52a13.17,13.17,0,0,0,2.18-.08,5,5,0,0,0,1.6-.83,7.84,7.84,0,0,1,3.21-1.54c1-.13,2.06.24,3,0s1.25-1,1.78-1.67c.73-.95,1.42-1.92,2-2.93a9.61,9.61,0,0,1-2.45-18.39,5,5,0,0,1-.18-1.84.66.66,0,0,0-.26.58,6.18,6.18,0,0,1,.16-2c.07-.36.25-1,.62-1.16a7.68,7.68,0,0,0-2.09,1.43A5.46,5.46,0,0,1,38.17,28L37.1,28a9.32,9.32,0,0,1,6.15-.54l1.39.48,0-.15a4.81,4.81,0,0,0-2.78-1.44,15.39,15.39,0,0,0-1.66-.22c-.32,0-.64,0-1,0-.16,0-.77-.06-.89.05a3.2,3.2,0,0,1,1.43-.81,15.38,15.38,0,0,0-4,.67,11.75,11.75,0,0,1,2.65-1.76,6.53,6.53,0,0,1,3.1-.62,1.31,1.31,0,0,0-.88-.54,4.92,4.92,0,0,1,5.09,2.59,7.51,7.51,0,0,0,.5.73c.22-.55.42-1.1.68-1.61l-2.38-8.09H36.79L34,26.31a.41.41,0,0,0-.16,0l-8.76-5.06-2,2-1.49,1.5-2,2L24.15,35a15.45,15.45,0,0,0-.55,1.48L15,39.06v7.77l8.16,2.48a18.37,18.37,0,0,0,.58,2.12l-4.19,7.69L21.44,61h0C23.05,60.64,24.46,59.62,26.08,59.52Z" style="fill:#f5d131"/><path d="M36.79,70.23h7.77l2.24-7.85c-4.86,0-9.57-.05-12.26-.05Z" style="fill:#53c4cc"/><path d="M57.75,36.45A15.63,15.63,0,0,0,57.2,35l4.54-8.18-2-2-1.48-1.5-2-2-3.83,2.21a6,6,0,0,1,.62.48c.14.13.38.51.54.57a5,5,0,0,0-2.49-.19,3.05,3.05,0,0,1,1.22.34,6.67,6.67,0,0,0-2.61.47,3.5,3.5,0,0,1,1.24.19,3,3,0,0,0-2.71,2,4.74,4.74,0,0,1,2.24-.78,8.52,8.52,0,0,1,3.22-.1l-.69.27a3.25,3.25,0,0,1,2.5,2.34,1,1,0,0,0-.69-.46A7.56,7.56,0,0,1,56.51,32a2.54,2.54,0,0,0-.63-.72,8.48,8.48,0,0,1,.6,4.17,4.68,4.68,0,0,0-1.2-2.23l-.36.68a6.22,6.22,0,0,0-1.83-2.78,1.49,1.49,0,0,0-.06.51,4.16,4.16,0,0,0-3.73-1.41,25.22,25.22,0,0,1,2.56,1.93,7.49,7.49,0,0,1,1.67,2.42,1.35,1.35,0,0,0-.87-.25,11.15,11.15,0,0,1-.09,4.81l-.38-1a5.92,5.92,0,0,1-2.14,4.14,5.15,5.15,0,0,0,.71-1.62,3.53,3.53,0,0,0,0-1.55,5.47,5.47,0,0,1-.14-.68,1.66,1.66,0,0,1-.48,1.1A9.5,9.5,0,0,0,50,36.39a7.56,7.56,0,0,1-.47.89A7.13,7.13,0,0,0,49,34.87l-.44.77c-.13-1.08-.22-2.63-1.24-3.29a11.75,11.75,0,0,0,0,1.57,25.73,25.73,0,0,1,.13,2.63.34.34,0,0,0,0,.1,9.61,9.61,0,0,1-3.68,15.21,29.78,29.78,0,0,1-1.56,3.46c-.55,1,.54.9,1.23,1.07A11.4,11.4,0,0,1,47,57.54c.49.31.93.71,1.43,1,2.12,1.27,4.88.68,7.2,1.54a6.79,6.79,0,0,0,2.47.52,13.81,13.81,0,0,1,2,.19l1.68-1.69-4.19-7.69a18.37,18.37,0,0,0,.58-2.12l8.16-2.48V39.06Z" style="fill:#f5d131"/><path d="M21.44,61l.11.12,1.24,1.25q3.3,0,6.58,0l3.36-1.8c.49.23,1,.57,1.52.76l.29,1c2.69,0,7.4,0,12.26.05l.3-1.07c.52-.19,1-.53,1.52-.76l3.45,1.85,6.46,0,1.27-1.29.32-.32a13.81,13.81,0,0,0-2-.19,6.79,6.79,0,0,1-2.47-.52c-2.32-.86-5.08-.27-7.2-1.54-.5-.31-.94-.71-1.43-1a11.4,11.4,0,0,0-3.57-1.15c-.69-.17-1.78-.06-1.23-1.07a29.78,29.78,0,0,0,1.56-3.46c1.08-2.8,1.81-5.71,2.62-8.61a31.33,31.33,0,0,0,1.06-6.6,9.83,9.83,0,0,0-1.65-1.51A24.37,24.37,0,0,1,44.1,44a74,74,0,0,1-3.21,6.8c-.29.58-.62,1.14-1,1.69-.63,1-1.32,2-2,2.93-.53.67-.93,1.46-1.78,1.67s-2-.13-3,0a7.84,7.84,0,0,0-3.21,1.54,5,5,0,0,1-1.6.83,13.17,13.17,0,0,1-2.18.08c-1.62.1-3,1.12-4.6,1.48Z" style="fill:#212f64"/><path d="M47.42,36.65a.34.34,0,0,1,0-.1,25.73,25.73,0,0,0-.13-2.63,11.75,11.75,0,0,1,0-1.57c1,.66,1.11,2.21,1.24,3.29l.44-.77a7.13,7.13,0,0,1,.52,2.41,7.56,7.56,0,0,0,.47-.89,9.5,9.5,0,0,1,.22,3.18,1.66,1.66,0,0,0,.48-1.1,5.47,5.47,0,0,0,.14.68,3.53,3.53,0,0,1,0,1.55,5.15,5.15,0,0,1-.71,1.62,5.92,5.92,0,0,0,2.14-4.14l.38,1a11.15,11.15,0,0,0,.09-4.81,1.35,1.35,0,0,1,.87.25,7.49,7.49,0,0,0-1.67-2.42,25.22,25.22,0,0,0-2.56-1.93A4.16,4.16,0,0,1,53,31.63a1.49,1.49,0,0,1,.06-.51,6.22,6.22,0,0,1,1.83,2.78l.36-.68a4.68,4.68,0,0,1,1.2,2.23,8.48,8.48,0,0,0-.6-4.17,2.54,2.54,0,0,1,.63.72,7.56,7.56,0,0,0-1.65-3.34,1,1,0,0,1,.69.46,3.25,3.25,0,0,0-2.5-2.34l.69-.27a8.52,8.52,0,0,0-3.22.1,4.74,4.74,0,0,0-2.24.78,3,3,0,0,1,2.71-2,3.5,3.5,0,0,0-1.24-.19,6.67,6.67,0,0,1,2.61-.47,3.05,3.05,0,0,0-1.22-.34,5,5,0,0,1,2.49.19c-.16-.06-.4-.44-.54-.57a6,6,0,0,0-.62-.48l-4.94,2.85a.4.4,0,0,0-.15,0l-.44-1.49c-.26.51-.46,1.06-.68,1.61a7.51,7.51,0,0,1-.5-.73,4.92,4.92,0,0,0-5.09-2.59,1.31,1.31,0,0,1,.88.54,6.53,6.53,0,0,0-3.1.62A11.75,11.75,0,0,0,35.8,26a15.38,15.38,0,0,1,4-.67,3.2,3.2,0,0,0-1.43.81c.12-.11.73-.05.89-.05.32,0,.64,0,1,0a15.39,15.39,0,0,1,1.66.22,4.81,4.81,0,0,1,2.78,1.44l0,.15-1.39-.48A9.32,9.32,0,0,0,37.1,28l1.07,0a5.46,5.46,0,0,0-2.44,3.09,7.68,7.68,0,0,1,2.09-1.43c-.37.17-.55.8-.62,1.16a6.18,6.18,0,0,0-.16,2,.66.66,0,0,1,.26-.58,5,5,0,0,0,.18,1.84c.34-.14.68-.26,1-.37a6.76,6.76,0,0,1,1.27-2.16,3.21,3.21,0,0,1-.07.76,8.64,8.64,0,0,1,3.47-2.54,20.68,20.68,0,0,0-1.56,1.41,6.56,6.56,0,0,0-1.44,2.2l.49,0a9.62,9.62,0,0,1,3,.68c.17-.27.34-.53.53-.78a5.44,5.44,0,0,1,1.25-1.47,1.2,1.2,0,0,1,.15.45,28.63,28.63,0,0,1,.12,2.92" style="fill:#212f64"/><circle cx="40.67" cy="104.05" r="12.99" style="fill:#fff"/><path d="M70.68,79.27H76.2c4.14,0,7.12,2.48,7.12,6.56s-3,6.59-7.1,6.59H70.68ZM76.2,89.46a3.49,3.49,0,0,0,3.65-3.63,3.37,3.37,0,0,0-3.63-3.61H74.07v7.24Z"/><path d="M85,79.27h9.64v2.85H88.4v2.19h6.11v2.88H88.4v2.37h6.25v2.86H85Z"/><path d="M95.22,79.27h3.84l3.24,9.48,3.25-9.48h3.84l-5,13.15h-4.26Z"/><path d="M116.33,79.05a6.8,6.8,0,1,1-7,6.8A6.68,6.68,0,0,1,116.33,79.05Zm0,3a3.81,3.81,0,1,0,3.57,3.8A3.54,3.54,0,0,0,116.33,82.05Z"/><path d="M125.06,79.27h6.58a4.35,4.35,0,1,1,0,8.69h-3.19v4.46h-3.39Zm6.13,2.85h-2.74v3h2.74a1.45,1.45,0,0,0,1.57-1.46A1.47,1.47,0,0,0,131.19,82.12Z"/><path d="M138.58,88a5.9,5.9,0,0,0,4.19,1.73c1.17,0,1.88-.49,1.88-1.12s-.85-1-2.25-1.34c-2.17-.43-5.21-1-5.21-4.1,0-2.21,1.88-4.12,5.25-4.12a8,8,0,0,1,5.34,1.83l-1.85,2.43A6.1,6.1,0,0,0,142.22,82c-1.12,0-1.56.45-1.56,1s.81.93,2.27,1.21c2.17.45,5.17,1.08,5.17,4.06,0,2.64-1.95,4.39-5.48,4.39a8,8,0,0,1-5.84-2.09Z"/><path d="M70.68,97.28H76.2c4.14,0,7.12,2.49,7.12,6.57s-3,6.58-7.1,6.58H70.68Zm5.52,10.2a3.49,3.49,0,0,0,3.65-3.63,3.37,3.37,0,0,0-3.63-3.61H74.07v7.24Z"/><path d="M92.8,108.44H87.34l-.67,2H83l5-13.15h4.26l5,13.15H93.47Zm-4.58-2.86h3.69l-1.85-5.34Z"/><path d="M100.36,105.13l-5-7.85H99.2l2.86,4.85,2.82-4.85h3.84l-5,7.85v5.3h-3.39Z"/><path d="M110.14,106a5.94,5.94,0,0,0,4.2,1.73c1.16,0,1.87-.49,1.87-1.12s-.85-1.05-2.25-1.34c-2.17-.44-5.2-1-5.2-4.1,0-2.21,1.87-4.12,5.24-4.12a8,8,0,0,1,5.34,1.83l-1.85,2.43a6.08,6.08,0,0,0-3.71-1.36c-1.12,0-1.55.45-1.55,1s.81.93,2.26,1.2c2.17.46,5.17,1.09,5.17,4.06,0,2.65-2,4.4-5.48,4.4a8.06,8.06,0,0,1-5.84-2.09Z"/><path d="M73.62,118.26H69.93v-3H80.68v3H77v10.19H73.62Z" style="fill:#cacaca"/><path d="M89.49,126.46H84l-.67,2H79.67l5-13.15h4.26l5,13.15H90.16Zm-4.58-2.86H88.6l-1.85-5.34Z" style="fill:#cacaca"/><path d="M106.34,119.58,103,128.45h-1.5l-3.31-8.87v8.87H94.81V115.3h4.71l2.74,7.45L105,115.3h4.71v13.15h-3.39Z" style="fill:#cacaca"/><path d="M112.09,115.3h6.58a4.36,4.36,0,1,1,0,8.7h-3.19v4.45h-3.39Zm6.13,2.86h-2.74v3h2.74a1.45,1.45,0,0,0,1.58-1.46A1.47,1.47,0,0,0,118.22,118.16Z" style="fill:#cacaca"/><path d="M131.76,126.46H126.3l-.67,2h-3.69l5-13.15h4.26l5,13.15h-3.69Zm-4.57-2.86h3.68L129,118.26Z" style="fill:#cacaca"/><path d="M142.12,115.3h7.45c2.61,0,3.85,1.7,3.85,3.35a3,3,0,0,1-2.25,3,3.15,3.15,0,0,1,2.5,3.21c0,1.92-1.28,3.57-3.86,3.57h-7.69Zm6.69,5.09a1.11,1.11,0,0,0,1.16-1.14,1.1,1.1,0,0,0-1.16-1.13h-3.3v2.27Zm.11,5.24a1.17,1.17,0,0,0,1.3-1.2,1.21,1.21,0,0,0-1.3-1.24h-3.41v2.44Z" style="fill:#cacaca"/><path d="M163.94,126.46h-5.46l-.67,2h-3.69l4.95-13.15h4.26l5,13.15h-3.69Zm-4.57-2.86h3.68l-1.85-5.34Z" style="fill:#cacaca"/><path d="M171.51,123.15l-5-7.85h3.82l2.86,4.85L176,115.3h3.85l-5,7.85v5.3h-3.39Z" style="fill:#cacaca"/><path d="M41.63,92.18a20.68,20.68,0,0,1,1.56-1.41,8.64,8.64,0,0,0-3.47,2.54,3.21,3.21,0,0,0,.07-.76,6.76,6.76,0,0,0-1.27,2.16,9.87,9.87,0,0,1,1.67-.33A6.56,6.56,0,0,1,41.63,92.18Z" style="fill:#ccc"/><path d="M45.65,93.22a1.2,1.2,0,0,0-.15-.45,5.44,5.44,0,0,0-1.25,1.47c-.19.25-.36.51-.53.78a9.69,9.69,0,0,1,2.05,1.12A28.63,28.63,0,0,0,45.65,93.22Z" style="fill:#ccc"/><path d="M56.3,125.68l2-2,.23-.22-6.46,0Z" style="fill:#cacaca"/><path d="M23.05,123.64l2,2,4.32-2.33q-3.28,0-6.58,0Z" style="fill:#cacaca"/><path d="M40.05,94.77a.93.93,0,0,1,.51-.35c-.38.1-.28,2-.27,2.28a9.08,9.08,0,0,0,.5,2.58l.22-.72a2.79,2.79,0,0,0,.39.88,2.11,2.11,0,0,0,.77.77c-.13-.07-.22-.62-.26-.76a5.5,5.5,0,0,1-.15-.81,3.31,3.31,0,0,1,.07-1.4,1.89,1.89,0,0,0,.41,1.17,10,10,0,0,1,.23-1.8,3.21,3.21,0,0,1,.86-1.56,2,2,0,0,0-.22,1A11.18,11.18,0,0,1,43.72,95a9.62,9.62,0,0,0-3-.68l-.49,0C40.14,94.51,40.09,94.64,40.05,94.77Z"/><path d="M37.48,95.08a16.15,16.15,0,0,0,.62,1.77,7,7,0,0,1,.42-2.14C38.16,94.82,37.82,94.94,37.48,95.08Z"/><path d="M26.08,120.52a13.17,13.17,0,0,0,2.18-.08,5,5,0,0,0,1.6-.83,7.84,7.84,0,0,1,3.21-1.54c1-.13,2.06.24,3,0s1.25-1,1.78-1.67c.73-1,1.42-1.92,2-2.93a9.61,9.61,0,0,1-2.45-18.39,5,5,0,0,1-.18-1.84.66.66,0,0,0-.26.58,6.18,6.18,0,0,1,.16-2c.07-.36.25-1,.62-1.16a7.68,7.68,0,0,0-2.09,1.43A5.46,5.46,0,0,1,38.17,89L37.1,89a9.32,9.32,0,0,1,6.15-.54l1.39.48,0-.15a4.81,4.81,0,0,0-2.78-1.44,15.39,15.39,0,0,0-1.66-.22c-.32,0-.64,0-1,0-.16,0-.77-.06-.89,0a3.2,3.2,0,0,1,1.43-.81,15.38,15.38,0,0,0-4,.67,11.75,11.75,0,0,1,2.65-1.76,6.53,6.53,0,0,1,3.1-.62,1.31,1.31,0,0,0-.88-.54,4.92,4.92,0,0,1,5.09,2.59,7.51,7.51,0,0,0,.5.73c.22-.55.42-1.1.68-1.61l-2.38-8.09H36.79L34,87.31a.41.41,0,0,0-.16,0l-8.76-5.06-2,2-1.49,1.5-2,2L24.15,96a15.45,15.45,0,0,0-.55,1.48L15,100.06v7.77l8.16,2.48a18.37,18.37,0,0,0,.58,2.12l-4.19,7.69L21.44,122h0C23.05,121.64,24.46,120.62,26.08,120.52Z" style="fill:#ccc"/><path d="M36.79,131.23h7.77l2.24-7.85c-4.86,0-9.57,0-12.26,0Z" style="fill:#cacaca"/><path d="M57.75,97.45A15.63,15.63,0,0,0,57.2,96l4.54-8.18-2-2-1.48-1.5-2-2-3.83,2.21a6,6,0,0,1,.62.48c.14.13.38.51.54.57a5,5,0,0,0-2.49-.19,3.05,3.05,0,0,1,1.22.34,6.67,6.67,0,0,0-2.61.47,3.5,3.5,0,0,1,1.24.19,3,3,0,0,0-2.71,2,4.74,4.74,0,0,1,2.24-.78,8.52,8.52,0,0,1,3.22-.1l-.69.27a3.25,3.25,0,0,1,2.5,2.34,1,1,0,0,0-.69-.46A7.56,7.56,0,0,1,56.51,93a2.54,2.54,0,0,0-.63-.72,8.48,8.48,0,0,1,.6,4.17,4.68,4.68,0,0,0-1.2-2.23l-.36.68a6.22,6.22,0,0,0-1.83-2.78,1.49,1.49,0,0,0-.06.51,4.16,4.16,0,0,0-3.73-1.41,25.22,25.22,0,0,1,2.56,1.93,7.49,7.49,0,0,1,1.67,2.42,1.35,1.35,0,0,0-.87-.25,11.15,11.15,0,0,1-.09,4.81l-.38-.95a5.92,5.92,0,0,1-2.14,4.14,5.15,5.15,0,0,0,.71-1.62,3.53,3.53,0,0,0,0-1.55,5.47,5.47,0,0,1-.14-.68,1.66,1.66,0,0,1-.48,1.1A9.5,9.5,0,0,0,50,97.39a7.56,7.56,0,0,1-.47.89A7.13,7.13,0,0,0,49,95.87l-.44.77c-.13-1.08-.22-2.63-1.24-3.29a11.75,11.75,0,0,0,0,1.57,25.73,25.73,0,0,1,.13,2.63.34.34,0,0,0,0,.1,9.61,9.61,0,0,1-3.68,15.21,29.78,29.78,0,0,1-1.56,3.46c-.55,1,.54.9,1.23,1.07A11.4,11.4,0,0,1,47,118.54c.49.31.93.71,1.43,1,2.12,1.27,4.88.68,7.2,1.54a6.79,6.79,0,0,0,2.47.52,13.81,13.81,0,0,1,2,.19l1.68-1.69-4.19-7.69a18.37,18.37,0,0,0,.58-2.12l8.16-2.48v-7.77Z" style="fill:#ccc"/><path d="M21.44,122l.11.12,1.24,1.25q3.3,0,6.58,0l3.36-1.8c.49.23,1,.57,1.52.76l.29,1c2.69,0,7.4,0,12.26,0l.3-1.07c.52-.19,1-.53,1.52-.76l3.45,1.85,6.46,0,1.27-1.29.32-.32a13.81,13.81,0,0,0-2-.19,6.79,6.79,0,0,1-2.47-.52c-2.32-.86-5.08-.27-7.2-1.54-.5-.31-.94-.71-1.43-1a11.4,11.4,0,0,0-3.57-1.15c-.69-.17-1.78-.06-1.23-1.07a29.78,29.78,0,0,0,1.56-3.46c1.08-2.8,1.81-5.71,2.62-8.61a31.33,31.33,0,0,0,1.06-6.6,9.83,9.83,0,0,0-1.65-1.51A24.37,24.37,0,0,1,44.1,105a74,74,0,0,1-3.21,6.8c-.29.58-.62,1.14-1,1.69-.63,1-1.32,2-2,2.93-.53.67-.93,1.46-1.78,1.67s-2-.13-3,0a7.84,7.84,0,0,0-3.21,1.54,5,5,0,0,1-1.6.83,13.17,13.17,0,0,1-2.18.08c-1.62.1-3,1.12-4.6,1.48Z"/><path d="M47.42,97.65a.34.34,0,0,1,0-.1,25.73,25.73,0,0,0-.13-2.63,11.75,11.75,0,0,1,0-1.57c1,.66,1.11,2.21,1.24,3.29l.44-.77a7.13,7.13,0,0,1,.52,2.41,7.56,7.56,0,0,0,.47-.89,9.5,9.5,0,0,1,.22,3.18,1.66,1.66,0,0,0,.48-1.1,5.47,5.47,0,0,0,.14.68,3.53,3.53,0,0,1,0,1.55,5.15,5.15,0,0,1-.71,1.62,5.92,5.92,0,0,0,2.14-4.14l.38.95a11.15,11.15,0,0,0,.09-4.81,1.35,1.35,0,0,1,.87.25,7.49,7.49,0,0,0-1.67-2.42,25.22,25.22,0,0,0-2.56-1.93A4.16,4.16,0,0,1,53,92.63a1.49,1.49,0,0,1,.06-.51,6.22,6.22,0,0,1,1.83,2.78l.36-.68a4.68,4.68,0,0,1,1.2,2.23,8.48,8.48,0,0,0-.6-4.17,2.54,2.54,0,0,1,.63.72,7.56,7.56,0,0,0-1.65-3.34,1,1,0,0,1,.69.46,3.25,3.25,0,0,0-2.5-2.34l.69-.27a8.52,8.52,0,0,0-3.22.1,4.74,4.74,0,0,0-2.24.78,3,3,0,0,1,2.71-2,3.5,3.5,0,0,0-1.24-.19,6.67,6.67,0,0,1,2.61-.47,3.05,3.05,0,0,0-1.22-.34,5,5,0,0,1,2.49.19c-.16-.06-.4-.44-.54-.57a6,6,0,0,0-.62-.48l-4.94,2.85a.4.4,0,0,0-.15,0l-.44-1.49c-.26.51-.46,1.06-.68,1.61a7.51,7.51,0,0,1-.5-.73,4.92,4.92,0,0,0-5.09-2.59,1.31,1.31,0,0,1,.88.54,6.53,6.53,0,0,0-3.1.62A11.75,11.75,0,0,0,35.8,87a15.38,15.38,0,0,1,4-.67,3.2,3.2,0,0,0-1.43.81c.12-.11.73,0,.89,0,.32,0,.64,0,1,0a15.39,15.39,0,0,1,1.66.22,4.81,4.81,0,0,1,2.78,1.44l0,.15-1.39-.48A9.32,9.32,0,0,0,37.1,89l1.07,0a5.46,5.46,0,0,0-2.44,3.09,7.68,7.68,0,0,1,2.09-1.43c-.37.17-.55.8-.62,1.16a6.18,6.18,0,0,0-.16,2,.66.66,0,0,1,.26-.58,5,5,0,0,0,.18,1.84c.34-.14.68-.26,1-.37a6.76,6.76,0,0,1,1.27-2.16,3.21,3.21,0,0,1-.07.76,8.64,8.64,0,0,1,3.47-2.54,20.68,20.68,0,0,0-1.56,1.41,6.56,6.56,0,0,0-1.44,2.2l.49,0a9.62,9.62,0,0,1,3,.68c.17-.27.34-.53.53-.78a5.44,5.44,0,0,1,1.25-1.47,1.2,1.2,0,0,1,.15.45,28.63,28.63,0,0,1,.12,2.92"/><circle cx="41.3" cy="165.42" r="12.99" style="fill:#fff"/><path d="M70.68,140.27H76.2c4.14,0,7.12,2.48,7.12,6.56s-3,6.59-7.1,6.59H70.68Zm5.52,10.19a3.49,3.49,0,0,0,3.65-3.63,3.37,3.37,0,0,0-3.63-3.61H74.07v7.24Z" style="fill:#fff"/><path d="M85,140.27h9.64v2.85H88.4v2.19h6.11v2.88H88.4v2.37h6.25v2.86H85Z" style="fill:#fff"/><path d="M95.22,140.27h3.84l3.24,9.48,3.25-9.48h3.84l-5,13.15h-4.26Z" style="fill:#fff"/><path d="M116.33,140.05a6.8,6.8,0,1,1-7,6.8A6.68,6.68,0,0,1,116.33,140.05Zm0,3a3.81,3.81,0,1,0,3.57,3.8A3.54,3.54,0,0,0,116.33,143.05Z" style="fill:#fff"/><path d="M125.06,140.27h6.58a4.35,4.35,0,1,1,0,8.69h-3.19v4.46h-3.39Zm6.13,2.85h-2.74v3h2.74a1.45,1.45,0,0,0,1.57-1.46A1.47,1.47,0,0,0,131.19,143.12Z" style="fill:#fff"/><path d="M138.58,149a5.9,5.9,0,0,0,4.19,1.73c1.17,0,1.88-.49,1.88-1.12s-.85-1-2.25-1.34c-2.17-.43-5.21-1-5.21-4.1,0-2.21,1.88-4.12,5.25-4.12a8,8,0,0,1,5.34,1.83l-1.85,2.43a6.1,6.1,0,0,0-3.71-1.36c-1.12,0-1.56.45-1.56,1s.81.93,2.27,1.21c2.17.45,5.17,1.08,5.17,4.06,0,2.64-1.95,4.39-5.48,4.39a8,8,0,0,1-5.84-2.09Z" style="fill:#fff"/><path d="M70.68,158.28H76.2c4.14,0,7.12,2.49,7.12,6.57s-3,6.58-7.1,6.58H70.68Zm5.52,10.2a3.49,3.49,0,0,0,3.65-3.63,3.37,3.37,0,0,0-3.63-3.61H74.07v7.24Z" style="fill:#fff"/><path d="M92.8,169.44H87.34l-.67,2H83l5-13.15h4.26l5,13.15H93.47Zm-4.58-2.86h3.69l-1.85-5.34Z" style="fill:#fff"/><path d="M100.36,166.13l-5-7.85H99.2l2.86,4.85,2.82-4.85h3.84l-5,7.85v5.3h-3.39Z" style="fill:#fff"/><path d="M110.14,167a5.94,5.94,0,0,0,4.2,1.73c1.16,0,1.87-.49,1.87-1.12s-.85-1.05-2.25-1.34c-2.17-.44-5.2-1-5.2-4.1,0-2.21,1.87-4.12,5.24-4.12a8,8,0,0,1,5.34,1.83l-1.85,2.43a6.08,6.08,0,0,0-3.71-1.36c-1.12,0-1.55.45-1.55,1s.81.93,2.26,1.2c2.17.46,5.17,1.09,5.17,4.06,0,2.65-2,4.4-5.48,4.4a8.06,8.06,0,0,1-5.84-2.09Z" style="fill:#fff"/><path d="M73.62,179.26H69.93v-3H80.68v3H77v10.19H73.62Z" style="fill:#fff"/><path d="M89.49,187.46H84l-.67,2H79.67l5-13.15h4.26l5,13.15H90.16Zm-4.58-2.86H88.6l-1.85-5.34Z" style="fill:#fff"/><path d="M106.34,180.58,103,189.45h-1.5l-3.31-8.87v8.87H94.81V176.3h4.71l2.74,7.45L105,176.3h4.71v13.15h-3.39Z" style="fill:#fff"/><path d="M112.09,176.3h6.58a4.36,4.36,0,1,1,0,8.7h-3.19v4.45h-3.39Zm6.13,2.86h-2.74v3h2.74a1.45,1.45,0,0,0,1.58-1.46A1.47,1.47,0,0,0,118.22,179.16Z" style="fill:#fff"/><path d="M131.76,187.46H126.3l-.67,2h-3.69l5-13.15h4.26l5,13.15h-3.69Zm-4.57-2.86h3.68L129,179.26Z" style="fill:#fff"/><path d="M142.12,176.3h7.45c2.61,0,3.85,1.7,3.85,3.35a3,3,0,0,1-2.25,3,3.15,3.15,0,0,1,2.5,3.21c0,1.92-1.28,3.57-3.86,3.57h-7.69Zm6.69,5.09a1.11,1.11,0,0,0,1.16-1.14,1.1,1.1,0,0,0-1.16-1.13h-3.3v2.27Zm.11,5.24a1.17,1.17,0,0,0,1.3-1.2,1.21,1.21,0,0,0-1.3-1.24h-3.41v2.44Z" style="fill:#fff"/><path d="M163.94,187.46h-5.46l-.67,2h-3.69l4.95-13.15h4.26l5,13.15h-3.69Zm-4.57-2.86h3.68l-1.85-5.34Z" style="fill:#fff"/><path d="M171.51,184.15l-5-7.85h3.82l2.86,4.85L176,176.3h3.85l-5,7.85v5.3h-3.39Z" style="fill:#fff"/><path d="M41.63,153.18a20.68,20.68,0,0,1,1.56-1.41,8.64,8.64,0,0,0-3.47,2.54,3.21,3.21,0,0,0,.07-.76,6.76,6.76,0,0,0-1.27,2.16,9.87,9.87,0,0,1,1.67-.33A6.56,6.56,0,0,1,41.63,153.18Z" style="fill:#f5d131"/><path d="M45.65,154.22a1.2,1.2,0,0,0-.15-.45,5.44,5.44,0,0,0-1.25,1.47c-.19.25-.36.51-.53.78a9.69,9.69,0,0,1,2.05,1.12A28.63,28.63,0,0,0,45.65,154.22Z" style="fill:#f5d131"/><path d="M56.3,186.68l2-2,.23-.22-6.46,0Z" style="fill:#53c4cc"/><path d="M23.05,184.64l2,2,4.32-2.33-6.58,0Z" style="fill:#53c4cc"/><path d="M40.05,155.77a.93.93,0,0,1,.51-.35c-.38.1-.28,2-.27,2.28a9.08,9.08,0,0,0,.5,2.58l.22-.72a2.79,2.79,0,0,0,.39.88,2.11,2.11,0,0,0,.77.77c-.13-.07-.22-.62-.26-.76a5.5,5.5,0,0,1-.15-.81,3.31,3.31,0,0,1,.07-1.4,1.89,1.89,0,0,0,.41,1.17,10,10,0,0,1,.23-1.8,3.21,3.21,0,0,1,.86-1.56,2,2,0,0,0-.22,1,11.18,11.18,0,0,1,.61-1.06,9.62,9.62,0,0,0-3-.68l-.49,0C40.14,155.51,40.09,155.64,40.05,155.77Z" style="fill:#212f64"/><path d="M37.48,156.08a16.15,16.15,0,0,0,.62,1.77,7,7,0,0,1,.42-2.14C38.16,155.82,37.82,155.94,37.48,156.08Z" style="fill:#212f64"/><path d="M26.08,181.52a13.17,13.17,0,0,0,2.18-.08,5,5,0,0,0,1.6-.83,7.84,7.84,0,0,1,3.21-1.54c1-.13,2.06.24,3,0s1.25-1,1.78-1.67c.73-1,1.42-1.92,2-2.93a9.61,9.61,0,0,1-2.45-18.39,5,5,0,0,1-.18-1.84.66.66,0,0,0-.26.58,6.18,6.18,0,0,1,.16-2c.07-.36.25-1,.62-1.16a7.68,7.68,0,0,0-2.09,1.43A5.46,5.46,0,0,1,38.17,150l-1.07,0a9.32,9.32,0,0,1,6.15-.54l1.39.48,0-.15a4.81,4.81,0,0,0-2.78-1.44,15.39,15.39,0,0,0-1.66-.22c-.32,0-.64,0-1,0-.16,0-.77-.06-.89,0a3.2,3.2,0,0,1,1.43-.81,15.38,15.38,0,0,0-4,.67,11.75,11.75,0,0,1,2.65-1.76,6.53,6.53,0,0,1,3.1-.62,1.31,1.31,0,0,0-.88-.54,4.92,4.92,0,0,1,5.09,2.59,7.51,7.51,0,0,0,.5.73c.22-.55.42-1.1.68-1.61l-2.38-8.09H36.79L34,148.31a.41.41,0,0,0-.16,0l-8.76-5.06-2,2-1.49,1.5-2,2L24.15,157a15.45,15.45,0,0,0-.55,1.48L15,161.06v7.77l8.16,2.48a17.84,17.84,0,0,0,.58,2.12l-4.19,7.69L21.44,183h0C23.05,182.64,24.46,181.63,26.08,181.52Z" style="fill:#f5d131"/><path d="M36.79,192.23h7.77l2.24-7.85c-4.86,0-9.57,0-12.26,0Z" style="fill:#53c4cc"/><path d="M57.75,158.45A15.63,15.63,0,0,0,57.2,157l4.54-8.18-2-2-1.48-1.5-2-2-3.83,2.21a6,6,0,0,1,.62.48c.14.13.38.51.54.57a5,5,0,0,0-2.49-.19,3.05,3.05,0,0,1,1.22.34,6.67,6.67,0,0,0-2.61.47,3.5,3.5,0,0,1,1.24.19,3,3,0,0,0-2.71,2,4.74,4.74,0,0,1,2.24-.78,8.52,8.52,0,0,1,3.22-.1l-.69.27a3.25,3.25,0,0,1,2.5,2.34,1,1,0,0,0-.69-.46A7.56,7.56,0,0,1,56.51,154a2.54,2.54,0,0,0-.63-.72,8.5,8.5,0,0,1,.6,4.17,4.6,4.6,0,0,0-1.2-2.22l-.36.67a6.28,6.28,0,0,0-1.83-2.78,1.51,1.51,0,0,0-.06.52,4.11,4.11,0,0,0-3.73-1.41,23.73,23.73,0,0,1,2.56,1.92,7.49,7.49,0,0,1,1.67,2.42,1.35,1.35,0,0,0-.87-.25,11.15,11.15,0,0,1-.09,4.81l-.38-.95a5.92,5.92,0,0,1-2.14,4.14,5.15,5.15,0,0,0,.71-1.62,3.53,3.53,0,0,0,0-1.55,5.72,5.72,0,0,1-.14-.67,1.66,1.66,0,0,1-.48,1.09,9.5,9.5,0,0,0-.22-3.18,7.56,7.56,0,0,1-.47.89,7.13,7.13,0,0,0-.52-2.41l-.44.77c-.13-1.08-.22-2.63-1.24-3.29a11.75,11.75,0,0,0,0,1.57,25.73,25.73,0,0,1,.13,2.63.34.34,0,0,0,0,.1,9.61,9.61,0,0,1-3.68,15.21,29.78,29.78,0,0,1-1.56,3.46c-.55,1,.54.91,1.23,1.07A11.4,11.4,0,0,1,47,179.54c.49.31.93.71,1.43,1,2.12,1.27,4.88.68,7.2,1.54a6.79,6.79,0,0,0,2.47.52,13.81,13.81,0,0,1,2,.19l1.68-1.69-4.19-7.69a18.37,18.37,0,0,0,.58-2.12l8.16-2.48v-7.77Z" style="fill:#f5d131"/><path d="M21.44,183l.11.12,1.24,1.26,6.58,0,3.36-1.8c.49.23,1,.57,1.52.76l.29,1c2.69,0,7.4,0,12.26,0l.3-1.07c.52-.19,1-.53,1.52-.76l3.45,1.85,6.46,0,1.27-1.29.32-.32a13.81,13.81,0,0,0-2-.19,6.79,6.79,0,0,1-2.47-.52c-2.32-.86-5.08-.27-7.2-1.54-.5-.31-.94-.71-1.43-1a11.4,11.4,0,0,0-3.57-1.15c-.69-.16-1.78-.06-1.23-1.07a29.78,29.78,0,0,0,1.56-3.46c1.08-2.79,1.81-5.71,2.62-8.61a31.33,31.33,0,0,0,1.06-6.6,9.83,9.83,0,0,0-1.65-1.51A24.37,24.37,0,0,1,44.1,166a74,74,0,0,1-3.21,6.8c-.29.58-.62,1.14-1,1.69-.63,1-1.32,2-2,2.93-.53.67-.93,1.46-1.78,1.67s-2-.13-3,0a7.84,7.84,0,0,0-3.21,1.54,5,5,0,0,1-1.6.83,13.17,13.17,0,0,1-2.18.08c-1.62.11-3,1.12-4.6,1.48Z" style="fill:#212f64"/><path d="M47.42,158.65a.34.34,0,0,1,0-.1,25.73,25.73,0,0,0-.13-2.63,11.75,11.75,0,0,1,0-1.57c1,.66,1.11,2.21,1.24,3.29l.44-.77a7.13,7.13,0,0,1,.52,2.41,7.56,7.56,0,0,0,.47-.89,9.5,9.5,0,0,1,.22,3.18,1.66,1.66,0,0,0,.48-1.09,5.72,5.72,0,0,0,.14.67,3.53,3.53,0,0,1,0,1.55,5.15,5.15,0,0,1-.71,1.62,5.92,5.92,0,0,0,2.14-4.14l.38.95a11.15,11.15,0,0,0,.09-4.81,1.35,1.35,0,0,1,.87.25,7.49,7.49,0,0,0-1.67-2.42,23.73,23.73,0,0,0-2.56-1.92A4.11,4.11,0,0,1,53,153.64a1.51,1.51,0,0,1,.06-.52,6.28,6.28,0,0,1,1.83,2.78l.36-.67a4.6,4.6,0,0,1,1.2,2.22,8.5,8.5,0,0,0-.6-4.17,2.54,2.54,0,0,1,.63.72,7.56,7.56,0,0,0-1.65-3.34,1,1,0,0,1,.69.46,3.25,3.25,0,0,0-2.5-2.34l.69-.27a8.52,8.52,0,0,0-3.22.1,4.74,4.74,0,0,0-2.24.78,3,3,0,0,1,2.71-2,3.5,3.5,0,0,0-1.24-.19,6.67,6.67,0,0,1,2.61-.47,3.05,3.05,0,0,0-1.22-.34,5,5,0,0,1,2.49.19c-.16-.06-.4-.44-.54-.57a6,6,0,0,0-.62-.48l-4.94,2.85a.4.4,0,0,0-.15,0l-.44-1.49c-.26.51-.46,1.06-.68,1.61a7.51,7.51,0,0,1-.5-.73,4.92,4.92,0,0,0-5.09-2.59,1.31,1.31,0,0,1,.88.54,6.53,6.53,0,0,0-3.1.62A11.75,11.75,0,0,0,35.8,148a15.38,15.38,0,0,1,4-.67,3.2,3.2,0,0,0-1.43.81c.12-.11.73,0,.89,0,.32,0,.64,0,1,0a15.39,15.39,0,0,1,1.66.22,4.81,4.81,0,0,1,2.78,1.44l0,.15-1.39-.48a9.32,9.32,0,0,0-6.15.54l1.07,0a5.46,5.46,0,0,0-2.44,3.09,7.68,7.68,0,0,1,2.09-1.43c-.37.17-.55.8-.62,1.16a6.18,6.18,0,0,0-.16,2,.66.66,0,0,1,.26-.58,5,5,0,0,0,.18,1.84c.34-.14.68-.26,1-.37a6.76,6.76,0,0,1,1.27-2.16,3.21,3.21,0,0,1-.07.76,8.64,8.64,0,0,1,3.47-2.54,20.68,20.68,0,0,0-1.56,1.41,6.56,6.56,0,0,0-1.44,2.2l.49,0a9.62,9.62,0,0,1,3,.68c.17-.27.34-.53.53-.78a5.44,5.44,0,0,1,1.25-1.47,1.2,1.2,0,0,1,.15.45,28.63,28.63,0,0,1,.12,2.92" style="fill:#212f64"/></svg>